<?xml version="1.0" encoding="UTF-8"?>
<svg width="270px" height="189px" viewBox="0 0 270 189" version="1.1" xmlns="http://www.w3.org/2000/svg" xmlns:xlink="http://www.w3.org/1999/xlink">
    <!-- Generator: Sketch 42 (36781) - http://www.bohemiancoding.com/sketch -->
    <title>Artboard 1</title>
    <desc>Created with Sketch.</desc>
    <defs></defs>
    <g id="Page-1" stroke="none" stroke-width="1" fill="none" fill-rule="evenodd">
        <g id="Artboard-1" fill-rule="nonzero">
            <path d="M55.91,136.1 C57.4528836,134.416021 59.6261616,133.448912 61.91,133.43 C64.3822101,133.40279 66.7384647,134.47648 68.34,136.36 C70.0629587,138.229407 71.0041413,140.687933 70.97,143.23 C71.0025459,145.984115 70.0763125,148.663828 68.35,150.81 C66.7090867,152.959871 64.1334116,154.188156 61.43,154.11 C59.2301113,154.191415 57.0648321,153.544644 55.27,152.27 C54.9550316,151.983787 54.5734372,151.780958 54.16,151.68 C53.77,151.68 53.46,152.02 53.24,152.68 C53.02,153.34 52.85,153.6 52.63,153.6 C52.41,153.6 52.23,153.39 52.23,152.96 L52.23,151.96 L52.54,131.32 L52.54,124.83 C52.5466953,124.328221 52.3847044,123.838726 52.08,123.44 C51.641516,123.032929 51.1089712,122.740888 50.53,122.59 C50.17,122.48 49.99,122.32 49.99,122.12 C49.99,121.92 50.19,121.76 50.61,121.79 L54.79,121.79 C55.19,121.87 55.5,121.94 55.79,122.01 C56.08,122.08 56.16,122.3 56.16,122.66 L56.16,123.72 C56.0466667,125.72 55.99,129.843333 55.99,136.09 L55.91,136.1 Z M55.68,146.38 C55.5954796,147.595988 55.7034758,148.817696 56,150 C56.3545392,150.873275 56.9644884,151.619156 57.75,152.14 C58.7019162,152.820743 59.8501546,153.171886 61.02,153.14 C62.7675234,153.1025 64.3792957,152.189538 65.31,150.71 C66.5912659,148.752067 67.214803,146.436572 67.09,144.1 C67.2210835,141.680359 66.6516707,139.274242 65.45,137.17 C64.5140157,135.581389 62.7934436,134.621692 60.95,134.66 C59.378533,134.59753 57.8871146,135.354595 57.01,136.66 C56.0766667,138.02 55.61,141.263333 55.61,146.39 L55.68,146.38 Z" id="Shape" fill="#808285"></path>
            <path d="M76.43,142.67 C76.37,143.47 76.34,144.106667 76.34,144.58 C76.2852203,146.651876 76.9974383,148.671014 78.34,150.25 C79.5255565,151.728622 81.3248869,152.580354 83.22,152.56 C85.2085975,152.520452 87.1031468,151.70594 88.5,150.29 C88.97,149.86 89.27,149.65 89.4,149.65 C89.53,149.65 89.79,149.85 89.8,150.26 C89.0771198,151.472348 88.0078989,152.440568 86.73,153.04 C85.2329548,153.805721 83.5713425,154.193659 81.89,154.17 C79.3773508,154.21189 76.9646024,153.187199 75.25,151.35 C73.4219408,149.427387 72.4420265,146.851509 72.53,144.2 C72.4508477,141.32789 73.5322697,138.545031 75.53,136.48 C77.1340408,134.601566 79.4515594,133.480888 81.92,133.39 C84.0838966,133.406046 86.1539564,134.275758 87.68,135.81 C89.3127299,137.246316 90.2489254,139.315417 90.25,141.49 C90.2668738,141.742417 90.2150371,141.994688 90.1,142.22 C89.99,142.38 89.39,142.46 88.29,142.46 L76.43,142.67 Z M76.43,141.44 C78.4833333,141.533333 80.4833333,141.58 82.43,141.58 L83.69,141.51 C84.454023,141.52464 85.2076234,141.331055 85.87,140.95 C86.4126743,140.526915 86.6997442,139.854567 86.63,139.17 C86.6444986,137.883576 86.1565761,136.642244 85.27,135.71 C84.4645927,134.776631 83.2928255,134.240027 82.06,134.24 C80.7485433,134.323907 79.5263556,134.933198 78.67,135.93 C77.51,137.05 76.7633333,138.886667 76.43,141.44 L76.43,141.44 Z" id="Shape" fill="#808285"></path>
            <path d="M102.87,150.67 C101.464979,152.824295 99.0409378,154.093129 96.47,154.02 C95.1043287,154.095824 93.7628288,153.636701 92.73,152.74 C91.8165302,151.870514 91.321109,150.650175 91.37,149.39 C91.3649896,148.366807 91.6455024,147.362502 92.18,146.49 C92.6222843,145.693722 93.2630422,145.025405 94.04,144.55 C95.2301747,143.95224 96.467721,143.453877 97.74,143.06 C100.26,142.226667 101.77,141.533333 102.27,140.98 C102.78818,140.387028 103.056929,139.616615 103.02,138.83 C103.083718,137.652972 102.729543,136.491278 102.02,135.55 C101.311711,134.750565 100.276352,134.319472 99.21,134.38 C98.4229634,134.316455 97.6391361,134.536352 97,135 C96.3552582,135.757996 95.9513612,136.691138 95.84,137.68 C95.55,139.13 94.94,139.86 93.97,139.86 C92.9366865,139.740901 92.1671551,138.849636 92.2,137.81 C92.2781201,136.502887 93.0377155,135.33311 94.2,134.73 C95.8248388,133.77217 97.6967042,133.316381 99.58,133.42 C101.062132,133.359072 102.53974,133.621834 103.91,134.19 C104.76627,134.517653 105.476138,135.142337 105.91,135.95 C106.257506,137.195213 106.396053,138.489445 106.32,139.78 L106.18,146.02 C106.114148,147.744922 106.261937,149.471366 106.62,151.16 C106.913333,152.18 107.453333,152.686667 108.24,152.68 C108.461438,152.673165 108.682055,152.649767 108.9,152.61 L109.3,152.61 C109.66,152.61 109.84,152.74 109.84,153 C109.84,153.6 108.29,153.91 105.19,153.91 C104.520929,153.998619 103.849448,153.7649 103.38,153.28 C102.981715,152.470566 102.805707,151.569822 102.87,150.67 L102.87,150.67 Z M102.87,141.46 C101.94971,142.40109 100.860829,143.160932 99.66,143.7 C98.3467943,144.312269 97.1412349,145.13286 96.09,146.13 C95.359393,146.903606 94.9671342,147.936434 95,149 C94.9755836,149.924064 95.2924224,150.82474 95.89,151.53 C96.4347217,152.184097 97.2490865,152.552587 98.1,152.53 C99.0266899,152.526742 99.9290267,152.232958 100.68,151.69 C101.459573,151.154734 102.075677,150.414025 102.46,149.55 C102.906268,148.31771 103.103413,147.009074 103.04,145.7 C103.013333,144.433333 102.956667,143.02 102.87,141.46 L102.87,141.46 Z" id="Shape" fill="#808285"></path>
            <path d="M113.65,133.86 C113.73,134.88 113.8,137.84 113.86,142.74 C113.86,145.793333 113.94,147.826667 114.1,148.84 C114.192718,149.792503 114.613346,150.683244 115.29,151.36 C115.887295,151.994349 116.718712,152.355835 117.59,152.36 C118.886602,152.287617 120.106506,151.722383 121,150.78 C122.035486,149.894107 122.772348,148.710238 123.11,147.39 C123.468436,144.63878 123.602212,141.862938 123.51,139.09 C123.614359,137.856961 123.485443,136.6153 123.13,135.43 C122.88,135.01 122.26,134.76 121.29,134.7 C120.93,134.7 120.75,134.55 120.75,134.3 C120.727301,134.164402 120.791048,134.028939 120.91,133.96 C121.257383,133.880732 121.614654,133.853768 121.97,133.88 L126.69,133.88 C126.83,135.593333 126.9,137.513333 126.9,139.64 L126.71,148.52 C126.60187,149.689961 126.759107,150.869242 127.17,151.97 C127.496993,152.453855 128.03631,152.751409 128.62,152.77 C129.03,152.83 129.24,152.99 129.24,153.24 C129.24,153.49 128.84,153.66 128.03,153.66 L124.3,153.66 C123.65,153.66 123.3,153.45 123.3,153.03 C123.292133,152.886775 123.292133,152.743225 123.3,152.6 C123.3,152.13 123.37,151.6 123.37,151.16 C123.37,150.72 123.37,150.16 123.3,149.37 C122.282967,150.748286 121.018053,151.925029 119.57,152.84 C118.367485,153.584397 116.9842,153.98555 115.57,154 C114.501643,154.034886 113.450226,153.72647 112.57,153.12 C111.826876,152.606138 111.274813,151.860677 111,151 C110.619354,148.965972 110.441814,146.899147 110.47,144.83 C110.376667,141.543333 110.33,138.963333 110.33,137.09 C110.372998,136.44891 110.319058,135.805002 110.17,135.18 C110.06,134.93 109.71,134.79 109.17,134.75 C108.63,134.71 108.23,134.55 108.23,134.28 C108.23,134.01 108.61,133.88 109.36,133.88 L113.65,133.86 Z" id="Shape" fill="#808285"></path>
            <path d="M136.1,135.58 C135.88,139.066667 135.77,142.486667 135.77,145.84 C135.77,148.426667 136.076667,150.113333 136.69,150.9 C137.333088,151.701108 138.324512,152.140913 139.35,152.08 C140.340089,152.032398 141.298165,151.714192 142.12,151.16 C142.320714,151.015045 142.543607,150.903599 142.78,150.83 C142.99,150.83 143.09,150.94 143.09,151.16 C143.09,151.54 142.53,152.16 141.41,152.95 C140.205849,153.794821 138.760221,154.226404 137.29,154.18 C135.876302,154.271251 134.512965,153.638542 133.67,152.5 C132.764154,150.996571 132.341787,149.251252 132.46,147.5 C132.46,145.18 132.6,141.206667 132.88,135.58 C132.77,135.58 132.02,135.49 130.64,135.42 L129.22,135.33 C128.87,135.33 128.7,135.2 128.7,134.98 C128.7,134.76 128.89,134.61 129.29,134.48 C130.453583,133.924915 131.544999,133.229767 132.54,132.41 C134.07289,131.242462 135.039417,129.480185 135.2,127.56 C135.26,127.01 135.44,126.74 135.73,126.74 C136.02,126.74 136.16,126.96 136.16,127.4 C136.169306,127.549856 136.169306,127.700144 136.16,127.85 C136.16,128.46 136.09,129.17 136.09,129.97 L136.09,133.64 L141.26,133.57 C142.14,133.57 142.59,133.67 142.63,133.88 C142.681152,134.365293 142.553115,134.852544 142.27,135.25 C141.45,135.25 139.386667,135.366667 136.08,135.6" id="Shape" fill="#808285"></path>
            <path d="M150.29,133.41 L150.29,138.72 L150.29,143.72 L150.29,147.45 L150.29,150.29 C150.29,151.423333 150.473333,152.143333 150.84,152.45 C151.323073,152.79615 151.905906,152.975213 152.5,152.96 C153.37,152.96 153.8,153.19 153.8,153.51 C153.8,153.83 153.64,153.89 153.3,153.89 L152.87,153.89 C151.517315,153.710229 150.154562,153.616707 148.79,153.61 C147.393959,153.577444 145.997331,153.640927 144.61,153.8 C144.45372,153.815573 144.29628,153.815573 144.14,153.8 C143.76,153.8 143.57,153.66 143.57,153.38 C143.57,153.1 144.01,152.9 144.88,152.79 C145.488002,152.78352 146.0775,152.580003 146.56,152.21 C146.891387,151.473955 147.015849,150.661494 146.92,149.86 L147.09,140.09 C147.09,137.476667 146.893333,135.93 146.5,135.45 C145.878322,134.883725 145.047515,134.604371 144.21,134.68 C143.83,134.68 143.64,134.553333 143.64,134.3 C143.637525,134.163351 143.710579,134.036466 143.83,133.97 C144.756081,133.786515 145.696193,133.682802 146.64,133.66 C148.386667,133.533333 149.6,133.463333 150.28,133.45 L150.29,133.41 Z M147.66,121.9 C148.259351,121.90115 148.834146,122.138253 149.26,122.56 C149.698607,122.914242 149.967325,123.437154 150,124 C150.009322,124.580374 149.802605,125.143498 149.42,125.58 C149.016649,126.028519 148.43241,126.271033 147.83,126.24 C147.242773,126.246617 146.672251,126.044631 146.22,125.67 C145.748607,125.28821 145.485364,124.706108 145.51,124.1 C145.487102,123.513701 145.703704,122.943314 146.11,122.52 C146.514276,122.090739 147.0804,121.851225 147.67,121.86 L147.66,121.9 Z" id="Shape" fill="#808285"></path>
            <path d="M160.85,135.87 C160.79,136.483333 160.76,138.45 160.76,141.77 L160.76,149.66 C160.757113,150.524342 161.034279,151.366366 161.55,152.06 C162.198056,152.752291 163.092486,153.161789 164.04,153.2 C164.48,153.2 164.7,153.4 164.7,153.67 C164.7,153.94 164.53,154 164.18,154 L160.18,153.76 C158.454462,153.72568 156.728364,153.789115 155.01,153.95 L154.75,153.95 C154.4,153.95 154.23,153.84 154.23,153.61 C154.23,153.38 154.5,153.16 155.06,153.08 C155.603776,153.043839 156.12981,152.871932 156.59,152.58 C156.897221,152.324015 157.108706,151.971541 157.19,151.58 C157.370453,150.069837 157.467267,148.550852 157.48,147.03 C157.58,144.43 157.626667,141.846667 157.62,139.28 L157.62,135.87 C156.44,135.79 155.54,135.74 154.93,135.73 C154.32,135.72 154.01,135.54 154.01,135.21 C153.946473,134.792034 154.1057,134.37122 154.43,134.1 C155.470247,133.827771 156.546055,133.71648 157.62,133.77 C157.564168,131.552161 157.779088,129.335792 158.26,127.17 C158.678868,125.536224 159.64616,124.095878 161,123.09 C162.52258,121.968898 164.380582,121.397748 166.27,121.47 C167.757818,121.330847 169.250329,121.682026 170.52,122.47 C171.341523,123.072168 171.824873,124.031431 171.82,125.05 C171.82,126.15 171.3,126.7 170.26,126.7 C169.903748,126.707925 169.561304,126.562204 169.32,126.3 C168.869686,125.715182 168.487236,125.08112 168.18,124.41 C167.696432,123.163563 166.516175,122.325581 165.18,122.28 C163.446149,122.176262 161.901295,123.366909 161.56,125.07 C161.014619,126.961612 160.741872,128.921353 160.75,130.89 C160.75,131.79 160.75,132.74 160.84,133.73 L162.02,133.73 C162.932532,133.7079 163.845382,133.758057 164.75,133.88 C165.34,133.98 165.63,134.18 165.63,134.48 C165.621937,134.778472 165.524387,135.067637 165.35,135.31 C165.051447,135.646144 164.619401,135.832876 164.17,135.82 C163.57,135.87 162.92,135.9 162.23,135.9 L160.84,135.9" id="Shape" fill="#808285"></path>
            <path d="M172.23,133.86 C172.31,134.88 172.38,137.84 172.44,142.74 C172.44,145.793333 172.52,147.826667 172.68,148.84 C172.771084,149.792953 173.19196,150.68422 173.87,151.36 C174.467295,151.994349 175.298712,152.355835 176.17,152.36 C177.466353,152.286618 178.685905,151.721547 179.58,150.78 C180.61449,149.893251 181.35114,148.709722 181.69,147.39 C182.048879,144.638819 182.182656,141.862941 182.09,139.09 C182.193166,137.856973 182.064273,136.615533 181.71,135.43 C181.46,135.01 180.84,134.76 179.87,134.7 C179.51,134.7 179.33,134.55 179.33,134.3 C179.310172,134.164813 179.373195,134.030889 179.49,133.96 C179.83745,133.881172 180.194655,133.854214 180.55,133.88 L185.27,133.88 C185.41,135.593333 185.48,137.513333 185.48,139.64 L185.29,148.52 C185.18187,149.689961 185.339107,150.869242 185.75,151.97 C186.076993,152.453855 186.61631,152.751409 187.2,152.77 C187.61,152.83 187.82,152.99 187.82,153.24 C187.82,153.49 187.42,153.66 186.61,153.66 L182.9,153.66 C182.25,153.66 181.9,153.45 181.9,153.03 L181.9,152.6 C181.947804,152.121503 181.971168,151.640878 181.97,151.16 C181.97,150.75 181.97,150.16 181.9,149.37 C180.883845,150.749069 179.618771,151.925962 178.17,152.84 C176.967485,153.584397 175.5842,153.98555 174.17,154 C173.101643,154.034886 172.050226,153.72647 171.17,153.12 C170.413175,152.615755 169.846512,151.87311 169.56,151.01 C169.178565,148.976079 169.001019,146.909175 169.03,144.84 C168.936667,141.553333 168.89,138.973333 168.89,137.1 C168.931441,136.458385 168.874106,135.81421 168.72,135.19 C168.61,134.94 168.27,134.8 167.72,134.76 C167.17,134.72 166.77,134.56 166.77,134.29 C166.77,134.02 167.15,133.89 167.9,133.89 L172.23,133.86 Z" id="Shape" fill="#808285"></path>
            <path d="M195.62,121.35 C195.666667,123.35 195.706667,125.333333 195.74,127.3 L195.74,142 L195.83,149.12 C195.75349,150.131226 195.954008,151.144184 196.41,152.05 C197.034706,152.764863 197.951717,153.155237 198.9,153.11 C199.4,153.11 199.66,153.31 199.66,153.56 C199.66,153.81 199.45,153.96 199.05,153.96 L198.65,153.96 C197.03,153.8 195.09,153.72 192.84,153.72 C191.732817,153.700965 190.6259,153.771193 189.53,153.93 L189.05,153.93 C188.58,153.93 188.34,153.78 188.34,153.49 C188.34,153.2 188.55,153.07 188.98,153.05 C190.413333,153.05 191.353333,152.636667 191.8,151.81 C192.336936,150.520424 192.566322,149.123566 192.47,147.73 L192.4,134.27 C192.4,129.943333 192.34,127.356667 192.22,126.51 C192.133361,125.714244 191.781068,124.970908 191.22,124.4 C190.587173,123.79201 189.771964,123.409002 188.9,123.31 C188.29,123.22 187.98,123.05 187.98,122.81 C187.98,122.57 188.23,122.39 188.74,122.36 C190.936586,122.298793 193.116871,121.962847 195.23,121.36 L195.62,121.35 Z" id="Shape" fill="#808285"></path>
            <path d="M203.89,142.67 C203.83,143.47 203.8,144.106667 203.8,144.58 C203.74711,146.651577 204.459097,148.67006 205.8,150.25 C206.985557,151.728622 208.784887,152.580354 210.68,152.56 C212.668369,152.519398 214.562539,151.705049 215.96,150.29 C216.43,149.86 216.73,149.65 216.86,149.65 C216.99,149.65 217.25,149.85 217.26,150.26 C216.540507,151.475119 215.470321,152.444213 214.19,153.04 C212.693095,153.806104 211.031386,154.194065 209.35,154.17 C206.837351,154.21189 204.424602,153.187199 202.71,151.35 C200.880971,149.427998 199.900896,146.851698 199.99,144.2 C199.909709,141.327693 200.991297,138.544407 202.99,136.48 C204.593273,134.600572 206.911257,133.479669 209.38,133.39 C211.544119,133.404961 213.614575,134.27484 215.14,135.81 C216.773799,137.245525 217.710225,139.315137 217.71,141.49 C217.729486,141.742588 217.677505,141.995561 217.56,142.22 C217.46,142.38 216.86,142.46 215.75,142.46 L203.89,142.67 Z M203.89,141.44 C205.943333,141.533333 207.943333,141.58 209.89,141.58 L211.14,141.51 C211.904082,141.525146 212.657816,141.331527 213.32,140.95 C213.862674,140.526915 214.149744,139.854567 214.08,139.17 C214.088227,137.884736 213.601194,136.645665 212.72,135.71 C211.914593,134.776631 210.742826,134.240027 209.51,134.24 C208.198543,134.323907 206.976356,134.933198 206.12,135.93 C204.966667,137.05 204.223333,138.886667 203.89,141.44 L203.89,141.44 Z" id="Shape" fill="#58A5DB"></path>
            <path d="M229.16,150.23 C230.88,145.563333 231.98,142.4 232.46,140.74 C232.880908,139.445259 233.126426,138.099955 233.19,136.74 C233.19,135.406667 232.373333,134.683333 230.74,134.57 C230.28,134.57 230.05,134.36 230.05,134.08 C230.05,133.8 230.24,133.69 230.6,133.69 L231.88,133.76 L233.36,133.76 C235.46,133.76 236.86,133.73 237.56,133.67 L238.22,133.67 C238.61,133.67 238.81,133.81 238.81,134.08 C238.81,134.35 238.6,134.49 238.17,134.59 C236.786503,134.971886 235.670522,135.994868 235.17,137.34 C234.436667,138.886667 233.103333,142.483333 231.17,148.13 C229.296667,153.65 227.79,157.65 226.65,160.13 C225.868853,162.073753 224.646713,163.809397 223.08,165.2 C222.05101,166.056405 220.767763,166.548609 219.43,166.6 C218.35361,166.654481 217.300781,166.272289 216.51,165.54 C215.873204,164.992175 215.486884,164.208704 215.44,163.37 C215.444702,162.764977 215.706488,162.190502 216.16,161.79 C216.5416,161.377553 217.068904,161.130043 217.63,161.1 C218.175353,161.03873 218.720409,161.217524 219.12351,161.589912 C219.526611,161.962301 219.747949,162.49151 219.73,163.04 C219.79,163.91 220.18,164.34 220.89,164.34 C222.023333,164.34 223.286667,163.153333 224.68,160.78 C226.073333,158.406667 226.77,156.55 226.77,155.21 C226.531914,153.281731 225.984914,151.404373 225.15,149.65 C224.07,146.983333 222.87,144.11 221.55,141.03 C220.838586,139.124063 219.93034,137.297517 218.84,135.58 C218.446653,135.088154 217.889301,134.754453 217.27,134.64 C216.75,134.58 216.49,134.41 216.49,134.15 C216.49,133.89 216.68,133.68 217.06,133.68 C217.241031,133.682513 217.421585,133.699231 217.6,133.73 C218.641508,133.859666 219.690497,133.9198 220.74,133.91 C222.274954,133.952161 223.811054,133.902071 225.34,133.76 C225.564572,133.717827 225.791772,133.691097 226.02,133.68 C226.41,133.68 226.61,133.83 226.61,134.13 C226.61,134.43 226.26,134.59 225.61,134.77 C224.363333,135.103333 223.743333,135.7 223.75,136.56 C223.75,137.3 225.543333,141.893333 229.13,150.34" id="Shape" fill="#58A5DB"></path>
            <path d="M240,142.67 C239.933333,143.47 239.9,144.106667 239.9,144.58 C239.84711,146.651577 240.559097,148.67006 241.9,150.25 C243.084604,151.729828 244.884558,152.581856 246.78,152.56 C248.768597,152.520452 250.663147,151.70594 252.06,150.29 C252.53,149.86 252.83,149.65 252.96,149.65 C253.09,149.65 253.34,149.85 253.36,150.26 C252.63808,151.473134 251.568586,152.441601 250.29,153.04 C248.789674,153.806544 247.124627,154.194483 245.44,154.17 C242.927351,154.21189 240.514602,153.187199 238.8,151.35 C236.971941,149.427387 235.992026,146.851509 236.08,144.2 C236.001984,141.328087 237.083241,138.545653 239.08,136.48 C240.684806,134.602558 243.001862,133.482104 245.47,133.39 C247.633897,133.406046 249.703956,134.275758 251.23,135.81 C252.863799,137.245525 253.800225,139.315137 253.8,141.49 C253.814824,141.743418 253.75946,141.996014 253.64,142.22 C253.54,142.38 252.93,142.46 251.83,142.46 L240,142.67 Z M240,141.44 C242.046667,141.533333 244.046667,141.58 246,141.58 L247.26,141.51 C248.024023,141.52464 248.777623,141.331055 249.44,140.95 C249.982674,140.526915 250.269744,139.854567 250.2,139.17 C250.208227,137.884736 249.721194,136.645665 248.84,135.71 C248.034593,134.776631 246.862826,134.240027 245.63,134.24 C244.315,134.321268 243.088732,134.930795 242.23,135.93 C241.103333,137.05 240.36,138.886667 240,141.44 L240,141.44 Z" id="Shape" fill="#58A5DB"></path>
            <path d="M269.56,147.45 C269.584319,149.228284 268.858263,150.934517 267.56,152.15 C266.29404,153.441087 264.558146,154.162872 262.75,154.15 C261.37608,154.081829 260.03266,153.720402 258.81,153.09 C258.338372,152.840091 257.838006,152.648676 257.32,152.52 C257.010386,152.546167 256.738964,152.73731 256.61,153.02 C256.35,153.46 256.11,153.68 255.89,153.68 C255.67,153.68 255.58,153.46 255.53,153.01 C255.48,152.56 255.45,151.54 255.43,149.95 C255.43,148.58 255.43,147.7 255.36,147.31 C255.36,146.73 255.51,146.43 255.82,146.43 C256.13,146.43 256.14,146.58 256.23,146.88 C256.772968,148.559637 257.646817,150.113525 258.8,151.45 C259.747219,152.63619 261.182019,153.327837 262.7,153.33 C263.718531,153.334382 264.706156,152.980394 265.49,152.33 C266.296446,151.69212 266.749764,150.707456 266.71,149.68 C266.71,147.946667 265.21,146.41 262.21,145.07 C260.80151,144.478329 259.426155,143.810681 258.09,143.07 C257.402672,142.648322 256.840055,142.051189 256.46,141.34 C256.067677,140.615592 255.864731,139.803806 255.87,138.98 C255.844931,137.411658 256.523761,135.914563 257.72,134.9 C258.94638,133.802274 260.544523,133.212355 262.19,133.25 C263.686407,133.306379 265.147383,133.721352 266.45,134.46 C266.652759,134.572531 266.878444,134.637501 267.11,134.65 C267.26,134.65 267.44,134.52 267.63,134.26 C267.82,134 267.96,133.9 268.07,133.9 C268.201546,133.897011 268.324244,133.966029 268.39,134.08 C268.550585,134.765467 268.637743,135.466081 268.65,136.17 C268.74,137.44 268.8,138.49 268.8,139.31 C268.8,139.81 268.67,140.07 268.4,140.07 C268.13,140.07 267.97,139.84 267.83,139.39 C267.515927,138.555558 267.138147,137.746506 266.7,136.97 C266.282341,136.001213 265.55405,135.199037 264.63,134.69 C263.936421,134.371783 263.183081,134.204753 262.42,134.2 C261.423347,134.156855 260.441003,134.449094 259.63,135.03 C258.93764,135.520308 258.53316,136.321778 258.55,137.17 C258.54265,137.699729 258.696063,138.219242 258.99,138.66 C259.227949,139.026506 259.510067,139.36236 259.83,139.66 C261.285344,140.478401 262.787987,141.209687 264.33,141.85 C265.501567,142.333676 266.623482,142.929798 267.68,143.63 C268.243151,144.08626 268.700376,144.659498 269.02,145.31 C269.377688,145.995573 269.566264,146.756736 269.57,147.53" id="Shape" fill="#58A5DB"></path>
            <path d="M7.34,135.86 C7.28,136.46 7.25,138.42 7.25,141.72 L7.25,149.54 C7.24559837,150.395371 7.52325621,151.228344 8.04,151.91 C8.67929643,152.602902 9.56795518,153.013053 10.51,153.05 C10.95,153.05 11.17,153.25 11.17,153.52 C11.17,153.79 11,153.85 10.66,153.85 L6.72,153.62 C5.00778326,153.586314 3.29503386,153.649749 1.59,153.81 L1.33,153.81 C0.98,153.81 0.81,153.7 0.81,153.47 C0.81,153.24 1.08,153.02 1.63,152.95 C2.16985544,152.917325 2.6927032,152.748775 3.15,152.46 C3.45845004,152.20507 3.67021474,151.852129 3.75,151.46 C3.92871613,149.959721 4.02552639,148.450816 4.04,146.94 C4.13,144.36 4.18,141.79 4.18,139.24 L4.18,135.87 C3.01,135.79 2.12,135.74 1.51,135.73 C0.9,135.72 0.6,135.54 0.6,135.22 C0.6,134.66 0.74,134.29 1.02,134.12 C2.05308586,133.845873 3.12260323,133.734535 4.19,133.79 C4.13504261,131.589248 4.34657998,129.389931 4.82,127.24 C5.25010638,125.638295 6.20856331,124.2288 7.54,123.24 C9.05048704,122.126115 10.8945831,121.55843 12.77,121.63 C14.2449419,121.493802 15.7238494,121.845087 16.98,122.63 C17.7955807,123.222643 18.2757682,124.171851 18.27,125.18 C18.27,126.28 17.7533333,126.826667 16.72,126.82 C16.3666987,126.827651 16.0274377,126.681732 15.79,126.42 C15.3423039,125.838864 14.9631316,125.208029 14.66,124.54 C14.1745028,123.298001 12.9930039,122.467013 11.66,122.43 C9.93569352,122.32167 8.39713379,123.505506 8.06,125.2 C7.51638187,127.078317 7.24363167,129.024609 7.25,130.98 C7.25,131.87 7.25,132.81 7.34,133.79 L8.52,133.79 C9.42243517,133.775055 10.3247738,133.825185 11.22,133.94 C11.81,134.04 12.1,134.25 12.1,134.54 C12.0887787,134.834818 11.991437,135.11989 11.82,135.36 C11.5202999,135.687517 11.0938383,135.869766 10.65,135.86 C10.05,135.91 9.41,135.94 8.73,135.94 L7.35,135.94" id="Shape" fill="#56A0D3"></path>
            <path d="M12.08,143.76 C12.0766535,141.040657 13.1561467,138.431881 15.08,136.51 C16.9548342,134.465173 19.6161911,133.321991 22.39,133.37 C25.0045802,133.33633 27.5244085,134.347861 29.39,136.18 C31.3211891,137.988844 32.390437,140.534673 32.33,143.18 C32.341599,145.98817 31.2246373,148.683291 29.23,150.66 C27.3902563,152.718806 24.7610382,153.897045 22,153.9 C19.3508911,153.917516 16.8142874,152.8304 15,150.9 C13.0863298,149.006296 12.0311925,146.411815 12.08,143.72 L12.08,143.76 Z M15.87,143.58 C15.7778152,145.952457 16.4280165,148.29458 17.73,150.28 C18.6411937,151.888121 20.3335345,152.895865 22.1815354,152.930771 C24.0295364,152.965678 25.7587267,152.022563 26.73,150.45 C28.0862407,148.506353 28.7581141,146.167108 28.64,143.8 C28.6791694,141.47132 28.0398447,139.181565 26.8,137.21 C25.8585225,135.449874 24.0358847,134.339444 22.04,134.31 C20.1907548,134.328978 18.4930699,135.336144 17.59,136.95 C16.3712445,138.954595 15.776026,141.276295 15.88,143.62 L15.87,143.58 Z" id="Shape" fill="#56A0D3"></path>
            <path d="M39.39,138.75 C40.1769569,137.246383 41.2464828,135.908626 42.54,134.81 C43.5310352,133.980431 44.7777081,133.517785 46.07,133.5 C46.9040437,133.493427 47.705094,133.825393 48.29,134.42 C48.8794888,134.960443 49.2196296,135.720332 49.23,136.52 C49.23,138.01 48.6,138.75 47.33,138.75 C46.74,138.75 46.24,138.34 45.83,137.51 C45.33,136.51 44.67,135.94 43.83,135.94 C42.8804925,136.025983 42.0085409,136.499949 41.42,137.25 C40.635578,138.056867 40.0649942,139.046796 39.76,140.13 C39.3915028,142.285928 39.2507288,144.474629 39.34,146.66 C39.34,149.66 39.46,151.44 39.71,151.88 C39.96,152.32 40.6,152.61 41.63,152.74 C41.91,152.74 42.05,152.88 42.05,153.06 C42.05,153.24 41.68,153.55 40.96,153.55 L33.48,153.55 C32.95,153.55 32.68,153.42 32.68,153.15 C32.68,152.88 33.04,152.76 33.73,152.73 C34.73,152.67 35.32,152.36 35.55,151.81 C35.78,151.26 35.9,149.25 35.9,145.75 C35.9893688,142.672989 35.8824854,139.593411 35.58,136.53 C35.37,135.53 34.58,134.96 33.22,134.89 C32.66,134.89 32.38,134.71 32.38,134.44 C32.372744,134.310018 32.4382305,134.186749 32.55,134.12 C33.2585907,133.982148 33.978175,133.908516 34.7,133.9 L39.01,133.67 C39.12,134.52 39.23,136.2 39.36,138.74" id="Shape" fill="#56A0D3"></path>
            <path d="M86.61,0 C62.82,12.56 45,34 38.31,59.45 C44.31,75.68 59.13,89.57 79.16,98.72 C62.5,89.22 50.21,75.61 45.03,59.88 C50.6741242,35.3157213 65.5654955,13.8704275 86.61,-5.68434189e-14 L86.61,0 Z M184.31,-5.68434189e-14 C205.344449,13.865148 220.231314,35.2983666 225.88,59.85 C220.69,75.57 208.41,89.18 191.75,98.69 C211.75,89.54 226.61,75.69 232.6,59.42 C225.88,34 208.1,12.57 184.31,0 L184.31,-5.68434189e-14 Z" id="Shape" fill="#808285"></path>
            <path d="M153.4,19.93 C153.399997,24.2972699 149.860599,27.8381549 145.493329,27.839993 C141.12606,27.8418311 137.583682,24.3039265 137.580003,19.9366582 C137.576323,15.5693899 141.112734,12.0255212 145.48,12.02 C147.579595,12.0173456 149.594104,12.8495463 151.07968,14.3332469 C152.565256,15.8169474 153.400002,17.8304038 153.4,19.93" id="Shape" fill="#58A5DB"></path>
            <path d="M169.56,31.76 C169.56,36.1285724 166.018572,39.67 161.65,39.67 C157.281428,39.67 153.74,36.1285724 153.74,31.76 C153.74,27.3914276 157.281428,23.85 161.65,23.85 C166.018572,23.85 169.56,27.3914276 169.56,31.76" id="Shape" fill="#58A5DB"></path>
            <path d="M175.47,51.23 C175.464477,55.595964 171.922638,59.131834 167.556671,59.129993 C163.190704,59.128152 159.651848,55.5892962 159.650007,51.2233291 C159.648166,46.857362 163.184036,43.315523 167.55,43.31 C171.924095,43.31 175.47,46.8559048 175.47,51.23" id="Shape" fill="#58A5DB"></path>
            <path d="M169.11,70.23 C169.109997,74.5972699 165.570599,78.1381549 161.203329,78.139993 C156.83606,78.1418311 153.293682,74.6039265 153.290003,70.2366582 C153.286323,65.8693899 156.822734,62.3255212 161.19,62.32 C165.560193,62.3199965 169.104482,65.8598105 169.11,70.23" id="Shape" fill="#58A5DB"></path>
            <path d="M153.4,82.15 C153.399997,86.5172699 149.860599,90.0581549 145.493329,90.059993 C141.12606,90.0618311 137.583682,86.5239265 137.580003,82.1566582 C137.576323,77.7893899 141.112734,74.2455212 145.48,74.24 C149.850193,74.2399965 153.394482,77.7798105 153.4,82.15" id="Shape" fill="#58A5DB"></path>
            <path d="M117.42,19.93 C117.42,24.2985724 120.961428,27.84 125.33,27.84 C129.698572,27.84 133.24,24.2985724 133.24,19.93 C133.24,15.5614276 129.698572,12.02 125.33,12.02 C120.961428,12.02 117.42,15.5614276 117.42,19.93" id="Shape" fill="#58A5DB"></path>
            <path d="M101.26,31.76 C101.26,36.1285724 104.801428,39.67 109.17,39.67 C113.538572,39.67 117.08,36.1285724 117.08,31.76 C117.08,27.3914276 113.538572,23.85 109.17,23.85 C104.801428,23.85 101.26,27.3914276 101.26,31.76" id="Shape" fill="#58A5DB"></path>
            <path d="M95.35,51.23 C95.355523,55.595964 98.897362,59.131834 103.263329,59.129993 C107.629296,59.128152 111.168152,55.5892962 111.169993,51.2233291 C111.171834,46.857362 107.635964,43.315523 103.27,43.31 C101.169485,43.31 99.1550024,44.1444262 97.6697143,45.6297143 C96.1844262,47.1150024 95.35,49.1294854 95.35,51.23" id="Shape" fill="#58A5DB"></path>
            <path d="M101.71,70.23 C101.71,74.5985724 105.251428,78.14 109.62,78.14 C113.988572,78.14 117.53,74.5985724 117.53,70.23 C117.53,65.8614276 113.988572,62.32 109.62,62.32 C105.253712,62.3255095 101.71551,65.8637118 101.71,70.23" id="Shape" fill="#58A5DB"></path>
            <path d="M117.42,82.15 C117.42,86.5185724 120.961428,90.06 125.33,90.06 C129.698572,90.06 133.24,86.5185724 133.24,82.15 C133.24,77.7814276 129.698572,74.24 125.33,74.24 C120.961428,74.24 117.42,77.7814276 117.42,82.15" id="Shape" fill="#58A5DB"></path>
            <path d="M128.05,32.89 C129.943783,34.3590427 130.288217,37.0851002 128.819338,38.9790107 C127.35046,40.8729212 124.624432,41.2175914 122.730394,39.7488772 C120.836357,38.280163 120.49145,35.5541652 121.96,33.66 C122.665386,32.7501794 123.703356,32.1578965 124.845498,32.0134877 C125.987641,31.8690789 127.140363,32.1843777 128.05,32.89" id="Shape" fill="#B5CA8F"></path>
            <path d="M138.62,29.86 C140.515669,31.3262285 140.864092,34.0514518 139.398288,35.9474489 C137.932484,37.843446 135.207339,38.1924794 133.311014,36.7270998 C131.414688,35.2617202 131.065045,32.5366532 132.53,30.64 C133.233916,29.7286511 134.271166,29.1344141 135.41338,28.9881207 C136.555594,28.8418272 137.709124,29.1554718 138.62,29.86" id="Shape" fill="#B5CA8F"></path>
            <path d="M149,33.84 C150.893783,35.3090427 151.238217,38.0351002 149.769338,39.9290107 C148.30046,41.8229212 145.574432,42.1675914 143.680394,40.6988772 C141.786357,39.230163 141.44145,36.5041652 142.91,34.61 C143.615386,33.7001794 144.653356,33.1078965 145.795498,32.9634877 C146.937641,32.8190789 148.090363,33.1343777 149,33.84" id="Shape" fill="#B5CA8F"></path>
            <path d="M155.15,43 C157.045669,44.4662285 157.394092,47.1914518 155.928288,49.0874489 C154.462484,50.983446 151.737339,51.3324794 149.841014,49.8670998 C147.944688,48.4017202 147.595045,45.6766532 149.06,43.78 C150.528843,41.887319 153.25157,41.5385953 155.15,43" id="Shape" fill="#B5CA8F"></path>
            <path d="M155,53.8 C156.893783,55.2690427 157.238217,57.9951002 155.769338,59.8890107 C154.30046,61.7829212 151.574432,62.1275914 149.680394,60.6588772 C147.786357,59.190163 147.44145,56.4641652 148.91,54.57 C149.615386,53.6601794 150.653356,53.0678965 151.795498,52.9234877 C152.937641,52.7790789 154.090363,53.0943777 155,53.8" id="Shape" fill="#B5CA8F"></path>
            <path d="M116,48.5 C117.894165,49.96855 120.620163,49.6236434 122.088877,47.7296055 C123.557591,45.8355676 123.212921,43.10954 121.319011,41.6406615 C119.4251,40.1717831 116.699043,40.5162169 115.23,42.41 C114.524378,43.3196371 114.209079,44.4723595 114.353488,45.6145016 C114.497896,46.7566436 115.090179,47.7946143 116,48.5" id="Shape" fill="#B5CA8F"></path>
            <path d="M115.66,59.49 C117.554165,60.95855 120.280163,60.6136434 121.748877,58.7196055 C123.217591,56.8255676 122.872921,54.09954 120.979011,52.6306615 C119.0851,51.1617831 116.359043,51.5062169 114.89,53.4 C114.184378,54.3096371 113.869079,55.4623595 114.013488,56.6045016 C114.157896,57.7466436 114.750179,58.7846143 115.66,59.49" id="Shape" fill="#B5CA8F"></path>
            <path d="M122.13,68.59 C124.026653,70.054955 126.75172,69.7053116 128.2171,67.8089864 C129.682479,65.9126611 129.333446,63.1875159 127.437449,61.7217118 C125.541452,60.2559078 122.816228,60.6043311 121.35,62.5 C120.645472,63.4108759 120.331827,64.5644059 120.478121,65.70662 C120.624414,66.8488342 121.218651,67.8860837 122.13,68.59" id="Shape" fill="#B5CA8F"></path>
            <path d="M132.51,72.22 C134.404165,73.68855 137.130163,73.3436434 138.598877,71.4496055 C140.067591,69.5555676 139.722921,66.82954 137.829011,65.3606615 C135.9351,63.8917831 133.209043,64.2362169 131.74,66.13 C130.276343,68.0258157 130.620545,70.748141 132.51,72.22" id="Shape" fill="#B5CA8F"></path>
            <path d="M143,69.41 C144.894794,70.8747523 147.617957,70.5277842 149.084916,68.6346989 C150.551876,66.7416135 150.208081,64.0180476 148.316707,62.5488831 C146.425332,61.0797186 143.701368,61.4203388 142.23,63.31 C141.521226,64.22027 141.204044,65.3752807 141.348524,66.5198666 C141.493005,67.6644524 142.087258,68.7044132 143,69.41" id="Shape" fill="#B5CA8F"></path>
            <path d="M60.46,187 L54,187 C53.87,187 53.81,186.94 53.81,186.81 L53.81,175.17 C53.81,175.04 53.87,174.98 54,174.98 L60.5,174.98 C60.5521363,174.973401 60.6043935,174.991286 60.6415536,175.028446 C60.6787136,175.065606 60.6965985,175.117864 60.69,175.17 L60.69,176.32 C60.69,176.45 60.63,176.51 60.5,176.51 L55.72,176.51 C55.59,176.51 55.53,176.57 55.53,176.7 L55.53,180 C55.53,180.14 55.59,180.19 55.72,180.19 L59.64,180.19 C59.77,180.19 59.83,180.25 59.83,180.38 L59.83,181.53 C59.83,181.66 59.77,181.72 59.64,181.72 L55.72,181.72 C55.59,181.72 55.53,181.78 55.53,181.91 L55.53,185.35 C55.53,185.48 55.59,185.54 55.72,185.54 L60.5,185.54 C60.5521363,185.533401 60.6043935,185.551286 60.6415536,185.588446 C60.6787136,185.625606 60.6965985,185.677864 60.69,185.73 L60.69,186.88 C60.69,187.01 60.63,187.07 60.5,187.07" id="Shape" fill="#A7A9AC"></path>
            <path d="M68.24,181.5 L68.24,186.83 C68.24,186.96 68.18,187.02 68.05,187.02 L66.71,187.02 C66.58,187.02 66.52,186.96 66.52,186.83 L66.52,181.5 L63.19,175.27 C63.1843427,175.226851 63.1843427,175.183149 63.19,175.14 C63.19,175.04 63.27,174.99 63.4,174.99 L64.97,174.99 L65.14,175.1 L67.24,179.46 C67.2651787,179.532351 67.3333925,179.580839 67.41,179.580839 C67.4866075,179.580839 67.5548213,179.532351 67.58,179.46 L69.68,175.1 L69.85,174.99 L71.42,174.99 C71.55,174.99 71.63,175.05 71.63,175.14 C71.6356573,175.183149 71.6356573,175.226851 71.63,175.27 L68.24,181.5 Z" id="Shape" fill="#A7A9AC"></path>
            <path d="M81.08,187 L74.58,187 C74.45,187 74.39,186.94 74.39,186.81 L74.39,175.17 C74.39,175.04 74.45,174.98 74.58,174.98 L81.08,174.98 C81.1321363,174.973401 81.1843935,174.991286 81.2215536,175.028446 C81.2587136,175.065606 81.2765985,175.117864 81.27,175.17 L81.27,176.32 C81.27,176.45 81.21,176.51 81.08,176.51 L76.3,176.51 C76.17,176.51 76.11,176.57 76.11,176.7 L76.11,180 C76.11,180.14 76.17,180.19 76.3,180.19 L80.22,180.19 C80.35,180.19 80.41,180.25 80.41,180.38 L80.41,181.53 C80.41,181.66 80.35,181.72 80.22,181.72 L76.3,181.72 C76.17,181.72 76.11,181.78 76.11,181.91 L76.11,185.35 C76.11,185.48 76.17,185.54 76.3,185.54 L81.08,185.54 C81.1321363,185.533401 81.1843935,185.551286 81.2215536,185.588446 C81.2587136,185.625606 81.2765985,185.677864 81.27,185.73 L81.27,186.88 C81.27,187.01 81.21,187.07 81.08,187.07" id="Shape" fill="#A7A9AC"></path>
            <path d="M93.72,186.87 C93.7008367,186.959096 93.6211111,187.022038 93.53,187.02 L92.44,187.02 C92.3524972,187.032668 92.2698913,186.976149 92.25,186.89 L90.05,178.42 L87.79,186.89 C87.7701087,186.976149 87.6875028,187.032668 87.6,187.02 L86.51,187.02 C86.4648549,187.025628 86.4193374,187.012926 86.3836295,186.984736 C86.3479215,186.956545 86.3250028,186.915219 86.32,186.87 L83.85,175.21 L83.85,175.13 C83.85,175.11 83.93,174.98 84.06,174.98 L85.46,174.98 C85.5511111,174.977962 85.6308367,175.040904 85.65,175.13 L87.31,183.94 L89.55,175.07 C89.55,174.97 89.63,174.94 89.74,174.94 L90.33,174.94 C90.44,174.94 90.5,174.94 90.52,175.07 L92.79,183.94 L94.42,175.13 C94.4391633,175.040904 94.5188889,174.977962 94.61,174.98 L96,174.98 C96.13,174.98 96.21,175.04 96.21,175.13 L96.21,175.21 L93.72,186.87 Z" id="Shape" fill="#A7A9AC"></path>
            <path d="M105.75,187 L99.25,187 C99.12,187 99.06,186.94 99.06,186.81 L99.06,175.17 C99.06,175.04 99.12,174.98 99.25,174.98 L105.75,174.98 C105.802136,174.973401 105.854394,174.991286 105.891554,175.028446 C105.928714,175.065606 105.946599,175.117864 105.94,175.17 L105.94,176.32 C105.94,176.45 105.88,176.51 105.75,176.51 L101,176.51 C100.87,176.51 100.81,176.57 100.81,176.7 L100.81,180 C100.81,180.14 100.87,180.19 101,180.19 L104.92,180.19 C105.05,180.19 105.11,180.25 105.11,180.38 L105.11,181.53 C105.11,181.66 105.05,181.72 104.92,181.72 L101,181.72 C100.87,181.72 100.81,181.78 100.81,181.91 L100.81,185.35 C100.81,185.48 100.87,185.54 101,185.54 L105.78,185.54 C105.832136,185.533401 105.884394,185.551286 105.921554,185.588446 C105.958714,185.625606 105.976599,185.677864 105.97,185.73 L105.97,186.88 C105.97,187.01 105.91,187.07 105.78,187.07" id="Shape" fill="#A7A9AC"></path>
            <path d="M117,186.85 C117,186.97 116.92,187.02 116.79,187.02 L115.36,187.02 C115.272497,187.032668 115.189891,186.976149 115.17,186.89 L114.46,184.37 C114.46,184.27 114.38,184.26 114.27,184.26 L111.17,184.26 C111.06,184.26 111,184.26 110.98,184.37 L110.27,186.89 C110.250109,186.976149 110.167503,187.032668 110.08,187.02 L108.65,187.02 C108.52,187.02 108.44,186.96 108.44,186.85 C108.44,186.74 108.44,186.85 108.44,186.77 L112,175.12 C112,175.02 112.08,174.99 112.19,174.99 L113.19,174.99 C113.276388,174.981874 113.356279,175.036536 113.38,175.12 L117,186.78 L117,186.86 L117,186.85 Z M113,178.86 C112.94,178.67 112.87,178.38 112.77,178.02 L112.69,178.02 L112.46,178.88 L111.52,182.45 L111.52,182.53 C111.52,182.55 111.6,182.7 111.73,182.7 L113.73,182.7 C113.86,182.7 113.94,182.64 113.94,182.53 L113.94,182.45 L113,178.86 Z" id="Shape" fill="#A7A9AC"></path>
            <path d="M127.32,186.87 C127.32,186.96 127.24,187.02 127.13,187.02 L125.66,187.02 L125.49,186.89 L123.71,181.79 L123.56,181.68 L121.67,181.68 C121.54,181.68 121.48,181.74 121.48,181.87 L121.48,186.87 C121.48,187 121.42,187.06 121.29,187.06 L119.95,187.06 C119.82,187.06 119.76,187 119.76,186.87 L119.76,175.17 C119.76,175.04 119.82,174.98 119.95,174.98 L123.77,174.98 C124.701932,174.910449 125.617907,175.250476 126.278715,175.911285 C126.939524,176.572093 127.279551,177.488068 127.21,178.42 L127.21,178.61 C127.150616,179.452592 126.758443,180.236938 126.12,180.79 C125.78,181.11 125.43,181.17 125.43,181.36 C125.420994,181.378986 125.420994,181.401014 125.43,181.42 L127.28,186.77 C127.290026,186.802579 127.290026,186.837421 127.28,186.87 L127.32,186.87 Z M125.44,178.23 C125.44268,177.773011 125.262327,177.333963 124.939182,177.010818 C124.616037,176.687673 124.176989,176.50732 123.72,176.51 L121.62,176.51 C121.49,176.51 121.43,176.57 121.43,176.7 L121.43,180 C121.43,180.14 121.49,180.19 121.62,180.19 L123.72,180.19 C124.176989,180.19268 124.616037,180.012327 124.939182,179.689182 C125.262327,179.366037 125.44268,178.926989 125.44,178.47 L125.44,178.23 Z" id="Shape" fill="#A7A9AC"></path>
            <path d="M138.85,187 L135,187 C134.87,187 134.81,186.94 134.81,186.81 L134.81,175.17 C134.81,175.04 134.87,174.98 135,174.98 L138.82,174.98 C139.751932,174.910449 140.667907,175.250476 141.328715,175.911285 C141.989524,176.572093 142.329551,177.488068 142.26,178.42 L142.26,178.61 C142.229486,179.175488 142.023228,179.717351 141.67,180.16 C141.35,180.62 140.96,180.79 140.96,180.92 C140.96,181.05 141.34,181.25 141.67,181.74 C142.019637,182.199959 142.224966,182.753302 142.26,183.33 L142.26,183.62 C142.331215,184.548872 141.990238,185.462048 141.327658,186.116924 C140.665077,186.7718 139.747976,187.102073 138.82,187.02 L138.85,187 Z M140.54,178.23 C140.54268,177.773011 140.362327,177.333963 140.039182,177.010818 C139.716037,176.687673 139.276989,176.50732 138.82,176.51 L136.72,176.51 C136.59,176.51 136.53,176.57 136.53,176.7 L136.53,180 C136.53,180.14 136.59,180.19 136.72,180.19 L138.82,180.19 C139.276989,180.19268 139.716037,180.012327 140.039182,179.689182 C140.362327,179.366037 140.54268,178.926989 140.54,178.47 L140.54,178.23 Z M140.54,183.39 C140.54,182.933828 140.358786,182.496339 140.036224,182.173776 C139.713661,181.851214 139.276172,181.67 138.82,181.67 L136.72,181.67 C136.59,181.67 136.53,181.73 136.53,181.86 L136.53,185.3 C136.53,185.43 136.59,185.49 136.72,185.49 L138.82,185.49 C139.767658,185.484538 140.534538,184.717658 140.54,183.77 L140.54,183.39 Z" id="Shape" fill="#A7A9AC"></path>
            <path d="M149.43,187.21 L148.86,187.21 C147.957884,187.294 147.063278,186.985496 146.404697,186.36329 C145.746116,185.741084 145.387335,184.86543 145.42,183.96 L145.42,178 C145.387335,177.09457 145.746116,176.218916 146.404697,175.59671 C147.063278,174.974504 147.957884,174.666 148.86,174.75 L149.43,174.75 C150.332116,174.666 151.226722,174.974504 151.885303,175.59671 C152.543884,176.218916 152.902665,177.09457 152.87,178 L152.87,184 C152.902665,184.90543 152.543884,185.781084 151.885303,186.40329 C151.226722,187.025496 150.332116,187.334 149.43,187.25 L149.43,187.21 Z M151.15,178.08 C151.15268,177.623011 150.972327,177.183963 150.649182,176.860818 C150.326037,176.537673 149.886989,176.35732 149.43,176.36 L148.86,176.36 C148.403011,176.35732 147.963963,176.537673 147.640818,176.860818 C147.317673,177.183963 147.13732,177.623011 147.14,178.08 L147.14,184 C147.13732,184.456989 147.317673,184.896037 147.640818,185.219182 C147.963963,185.542327 148.403011,185.72268 148.86,185.72 L149.43,185.72 C149.886989,185.72268 150.326037,185.542327 150.649182,185.219182 C150.972327,184.896037 151.15268,184.456989 151.15,184 L151.15,178.08 Z" id="Shape" fill="#A7A9AC"></path>
            <path d="M160.09,187.21 L159.52,187.21 C158.617884,187.294 157.723278,186.985496 157.064697,186.36329 C156.406116,185.741084 156.047335,184.86543 156.08,183.96 L156.08,175.17 C156.08,175.04 156.14,174.98 156.27,174.98 L157.61,174.98 C157.662136,174.973401 157.714394,174.991286 157.751554,175.028446 C157.788714,175.065606 157.806599,175.117864 157.8,175.17 L157.8,184 C157.79732,184.456989 157.977673,184.896037 158.300818,185.219182 C158.623963,185.542327 159.063011,185.72268 159.52,185.72 L160.09,185.72 C160.546989,185.72268 160.986037,185.542327 161.309182,185.219182 C161.632327,184.896037 161.81268,184.456989 161.81,184 L161.81,175.21 C161.81,175.08 161.87,175.02 162,175.02 L163.34,175.02 C163.392136,175.013401 163.444394,175.031286 163.481554,175.068446 C163.518714,175.105606 163.536599,175.157864 163.53,175.21 L163.53,184 C163.562665,184.90543 163.203884,185.781084 162.545303,186.40329 C161.886722,187.025496 160.992116,187.334 160.09,187.25" id="Shape" fill="#A7A9AC"></path>
            <path d="M173,176.51 L170.8,176.51 C170.67,176.51 170.61,176.57 170.61,176.7 L170.61,186.83 C170.61,186.96 170.55,187.02 170.42,187.02 L169.08,187.02 C168.95,187.02 168.89,186.96 168.89,186.83 L168.89,176.7 C168.89,176.57 168.83,176.51 168.7,176.51 L166.5,176.51 C166.37,176.51 166.31,176.45 166.31,176.32 L166.31,175.17 C166.31,175.04 166.37,174.98 166.5,174.98 L173,174.98 C173.13,174.98 173.19,175.04 173.19,175.17 L173.19,176.32 C173.19,176.45 173.13,176.51 173,176.51" id="Shape" fill="#A7A9AC"></path>
            <path d="M177.67,187 L176.33,187 C176.2,187 176.14,186.94 176.14,186.81 L176.14,175.17 C176.14,175.04 176.2,174.98 176.33,174.98 L177.67,174.98 C177.722136,174.973401 177.774394,174.991286 177.811554,175.028446 C177.848714,175.065606 177.866599,175.117864 177.86,175.17 L177.86,186.83 C177.86,186.96 177.8,187.02 177.67,187.02" id="Shape" fill="#A7A9AC"></path>
            <path d="M187,186.81 C186.29,187.21 185.68,187.04 185.68,187.36 L185.68,188.54 C185.68,188.67 185.62,188.73 185.49,188.73 L184.34,188.73 C184.21,188.73 184.15,188.67 184.15,188.54 L184.15,187.36 C184.15,187.05 183.48,187.19 182.79,186.81 C181.736678,186.262261 181.105458,185.144883 181.18,183.96 L181.18,178 C181.147335,177.09457 181.506116,176.218916 182.164697,175.59671 C182.823278,174.974504 183.717884,174.666 184.62,174.75 L185.19,174.75 C186.092116,174.666 186.986722,174.974504 187.645303,175.59671 C188.303884,176.218916 188.662665,177.09457 188.63,178 L188.63,184 C188.678587,185.18675 188.040462,186.295685 186.99,186.85 L187,186.81 Z M186.91,178.08 C186.91268,177.623011 186.732327,177.183963 186.409182,176.860818 C186.086037,176.537673 185.646989,176.35732 185.19,176.36 L184.62,176.36 C184.163011,176.35732 183.723963,176.537673 183.400818,176.860818 C183.077673,177.183963 182.89732,177.623011 182.9,178.08 L182.9,184 C182.9,184.84 183.51,185.57 184.01,185.57 C184.09,185.57 184.14,185.49 184.14,185.38 L184.14,184.6 C184.14,184.47 184.2,184.41 184.33,184.41 L185.48,184.41 C185.61,184.41 185.67,184.47 185.67,184.6 L185.67,185.38 C185.67,185.49 185.73,185.57 185.8,185.57 C186.3,185.57 186.91,184.84 186.91,184 L186.91,178.08 Z" id="Shape" fill="#A7A9AC"></path>
            <path d="M195.89,187.21 L195.32,187.21 C194.417884,187.294 193.523278,186.985496 192.864697,186.36329 C192.206116,185.741084 191.847335,184.86543 191.88,183.96 L191.88,175.17 C191.88,175.04 191.94,174.98 192.07,174.98 L193.41,174.98 C193.462136,174.973401 193.514394,174.991286 193.551554,175.028446 C193.588714,175.065606 193.606599,175.117864 193.6,175.17 L193.6,184 C193.59732,184.456989 193.777673,184.896037 194.100818,185.219182 C194.423963,185.542327 194.863011,185.72268 195.32,185.72 L195.89,185.72 C196.346989,185.72268 196.786037,185.542327 197.109182,185.219182 C197.432327,184.896037 197.61268,184.456989 197.61,184 L197.61,175.21 C197.61,175.08 197.67,175.02 197.8,175.02 L199.14,175.02 C199.192136,175.013401 199.244394,175.031286 199.281554,175.068446 C199.318714,175.105606 199.336599,175.157864 199.33,175.21 L199.33,184 C199.362665,184.90543 199.003884,185.781084 198.345303,186.40329 C197.686722,187.025496 196.792116,187.334 195.89,187.25" id="Shape" fill="#A7A9AC"></path>
            <path d="M209.42,187 L202.92,187 C202.78,187 202.73,186.94 202.73,186.81 L202.73,175.17 C202.73,175.04 202.79,174.98 202.92,174.98 L209.42,174.98 C209.472136,174.973401 209.524394,174.991286 209.561554,175.028446 C209.598714,175.065606 209.616599,175.117864 209.61,175.17 L209.61,176.32 C209.61,176.45 209.55,176.51 209.42,176.51 L204.64,176.51 C204.51,176.51 204.45,176.57 204.45,176.7 L204.45,180 C204.45,180.14 204.51,180.19 204.64,180.19 L208.56,180.19 C208.7,180.19 208.75,180.25 208.75,180.38 L208.75,181.53 C208.75,181.66 208.69,181.72 208.56,181.72 L204.64,181.72 C204.51,181.72 204.45,181.78 204.45,181.91 L204.45,185.35 C204.45,185.48 204.51,185.54 204.64,185.54 L209.42,185.54 C209.472136,185.533401 209.524394,185.551286 209.561554,185.588446 C209.598714,185.625606 209.616599,185.677864 209.61,185.73 L209.61,186.88 C209.61,187.01 209.55,187.07 209.42,187.07" id="Shape" fill="#A7A9AC"></path>
        </g>
    </g>
</svg>